G04 DipTrace 3.2.0.1*
G04 Bottom.gbr*
%MOIN*%
G04 #@! TF.FileFunction,Copper,L2,Bot*
G04 #@! TF.Part,Single*
G04 #@! TA.AperFunction,Conductor*
%ADD13C,0.03*%
%ADD14C,0.07*%
G04 #@! TA.AperFunction,ComponentPad*
%ADD15C,0.05*%
%ADD16R,0.074803X0.074803*%
%ADD17C,0.074803*%
%ADD18R,0.066929X0.066929*%
%ADD19C,0.066929*%
%ADD20R,0.094488X0.094488*%
%ADD21C,0.094488*%
%ADD23C,0.05*%
%ADD24R,0.059055X0.059055*%
%ADD25C,0.059055*%
G04 #@! TA.AperFunction,ViaPad*
%ADD26C,0.04*%
%FSLAX26Y26*%
G04*
G70*
G90*
G75*
G01*
G04 Bottom*
%LPD*%
X2794000Y3394000D2*
D13*
X2702000Y3486000D1*
X1486000D1*
X1394000Y3394000D1*
X1159118D1*
X1099118Y3334000D1*
Y2194000D1*
X1394000Y2894000D2*
X1470000D1*
Y1558000D1*
X1394000Y794000D2*
X1440472D1*
X1470000Y823528D1*
Y1264472D1*
X1440472Y1294000D1*
X1394000D1*
X1347528D1*
X1318000Y1323528D1*
Y1764472D1*
X1347528Y1794000D1*
X1318000Y1823528D1*
Y2264472D1*
X1347528Y2294000D1*
X1318000Y2323528D1*
Y2764472D1*
X1347528Y2794000D1*
X1318000Y2823528D1*
Y3264472D1*
X1347528Y3294000D1*
X1394000D1*
X1347528Y2294000D2*
X1394000D1*
X1347528Y1794000D2*
X1394000D1*
Y2794000D2*
X1347528D1*
X988882Y1594000D2*
Y1356882D1*
X926000Y1294000D1*
X694000D1*
X988882Y1794000D2*
X894000Y1699118D1*
Y1547465D1*
X740535Y1394000D1*
X694000D1*
X2794000Y794000D2*
D14*
X2747528D1*
X2694000Y847528D1*
Y1240472D1*
X2747528Y1294000D1*
X2694000Y1347528D1*
Y1740472D1*
X2747528Y1794000D1*
X2694000Y1847528D1*
Y2240472D1*
X2747528Y2294000D1*
X2694000Y2347528D1*
Y2740472D1*
X2747528Y2794000D1*
X2694000Y2847528D1*
Y3240472D1*
X2747528Y3294000D1*
X2794000D1*
X2747528Y2794000D2*
D15*
X2794000D1*
Y2294000D2*
D13*
X2747528D1*
Y1794000D2*
D15*
X2794000D1*
X2747528Y1294000D2*
X2794000D1*
X3294000Y2684157D2*
D14*
Y2594000D1*
X3494000Y2394000D1*
Y2894000D2*
X3303843Y3084157D1*
Y3194000D1*
X3494000Y2394000D2*
X3354000D1*
X3294000Y2334000D1*
Y2184157D1*
X2094000Y894000D2*
X1954000D1*
X1894000Y834000D1*
Y684157D1*
X1903843Y3194000D2*
Y3331843D1*
X1966000Y3394000D1*
X2094000D1*
Y2894000D2*
X1903843Y3084157D1*
Y3194000D1*
Y2694000D2*
Y2831843D1*
X1966000Y2894000D1*
X2094000D1*
Y2394000D2*
X1903843Y2584157D1*
Y2694000D1*
Y2194000D2*
Y2322000D1*
X1975843Y2394000D1*
X2094000D1*
Y1894000D2*
X1903843Y2084157D1*
Y2194000D1*
Y1694000D2*
Y1831843D1*
X1966000Y1894000D1*
X2094000D1*
Y1394000D2*
X1903843Y1584157D1*
Y1694000D1*
X1894000Y1184157D2*
Y1334000D1*
X1954000Y1394000D1*
X2094000D1*
Y894000D2*
X1894000Y1094000D1*
Y1184157D1*
X3294000Y684157D2*
Y635402D1*
X3256598Y598000D1*
X2154000D1*
X2094000Y658000D1*
Y894000D1*
X3494000D2*
X3370000Y770000D1*
X3294000D1*
Y684157D1*
X3303843Y1194000D2*
Y1084157D1*
X3494000Y894000D1*
Y1394000D2*
X3366000D1*
X3303843Y1331843D1*
Y1194000D1*
Y1694000D2*
Y1584157D1*
X3494000Y1394000D1*
Y1894000D2*
X3366000D1*
X3303843Y1831843D1*
Y1694000D1*
X3494000Y2394000D2*
Y1894000D1*
X3303843Y3194000D2*
Y3331843D1*
X3366000Y3394000D1*
X3494000D1*
X2394000Y3390850D2*
X2194000Y3190850D1*
Y3094000D1*
X2394000Y2894000D1*
X3794000Y894000D2*
X3890000Y990000D1*
Y1294850D1*
X3794000Y1390850D1*
X2394000Y1394000D2*
X2494000Y1294000D1*
Y994000D1*
X2394000Y894000D1*
Y1894000D2*
X2242000Y1742000D1*
Y1546000D1*
X2394000Y1394000D1*
Y2390850D2*
X2194000Y2190850D1*
Y2094000D1*
X2394000Y1894000D1*
Y2894000D2*
X2494000Y2794000D1*
Y2490850D1*
X2394000Y2390850D1*
X3794000Y2890850D2*
X3698000Y2986850D1*
Y3298000D1*
X3794000Y3394000D1*
Y2390850D2*
X3890000Y2486850D1*
Y2794850D1*
X3794000Y2890850D1*
Y1890850D2*
X3698000Y1986850D1*
Y2294850D1*
X3794000Y2390850D1*
Y1390850D2*
X3890000Y1486850D1*
Y1794850D1*
X3794000Y1890850D1*
X2394000Y2697150D2*
X1994000Y2694000D1*
X1984157Y1184157D2*
X2181008D1*
X2194000Y1197150D1*
X2394000D1*
X3794000Y2694000D2*
X3567843D1*
X3558000Y2684157D1*
X3384157D1*
X3794000Y1194000D2*
X3394000D1*
D26*
X1099118Y2194000D3*
X988882Y1594000D3*
Y1794000D3*
X1470000Y1558000D3*
D16*
X1994000Y3194000D3*
D17*
X1903843D3*
X1813685D3*
D16*
X1994000Y2694000D3*
D17*
X1903843D3*
X1813685D3*
D16*
X1994000Y2194000D3*
D17*
X1903843D3*
X1813685D3*
D16*
X1994000Y1694000D3*
D17*
X1903843D3*
X1813685D3*
D16*
X1984157Y1184157D3*
D17*
X1894000D3*
X1803843D3*
D16*
X1984157Y684157D3*
D17*
X1894000D3*
X1803843D3*
D16*
X3394000Y3194000D3*
D17*
X3303843D3*
X3213685D3*
D16*
X3384157Y2684157D3*
D17*
X3294000D3*
X3203843D3*
D16*
X3384157Y2184157D3*
D17*
X3294000D3*
X3203843D3*
D16*
X3394000Y1694000D3*
D17*
X3303843D3*
X3213685D3*
D16*
X3394000Y1194000D3*
D17*
X3303843D3*
X3213685D3*
D16*
X3384157Y684157D3*
D17*
X3294000D3*
X3203843D3*
D18*
X694000Y694000D3*
D19*
Y794000D3*
Y894000D3*
Y994000D3*
Y1094000D3*
Y1194000D3*
Y1294000D3*
Y1394000D3*
Y1494000D3*
Y1594000D3*
Y1694000D3*
Y1794000D3*
Y1894000D3*
Y1994000D3*
Y2094000D3*
Y2194000D3*
Y2294000D3*
Y2394000D3*
Y2494000D3*
Y2594000D3*
D20*
Y3390850D3*
D21*
Y3194000D3*
D20*
X2394000Y3390850D3*
D21*
Y3194000D3*
D20*
Y2894000D3*
D21*
Y2697150D3*
D20*
Y2390850D3*
D21*
Y2194000D3*
D20*
Y1894000D3*
D21*
Y1697150D3*
D20*
Y1394000D3*
D21*
Y1197150D3*
D20*
Y894000D3*
D21*
Y697150D3*
D20*
X3794000Y3394000D3*
D21*
Y3197150D3*
D20*
Y2890850D3*
D21*
Y2694000D3*
D20*
Y2390850D3*
D21*
Y2194000D3*
D20*
Y1890850D3*
D21*
Y1694000D3*
D20*
Y1390850D3*
D21*
Y1194000D3*
D20*
Y894000D3*
D21*
Y697150D3*
D15*
X2094000Y3394000D3*
D23*
X1794000D3*
D15*
X2094000Y2894000D3*
D23*
X1794000D3*
D15*
X2094000Y2394000D3*
D23*
X1794000D3*
D15*
X2094000Y1894000D3*
D23*
X1794000D3*
D15*
X2094000Y1394000D3*
D23*
X1794000D3*
D15*
X2094000Y894000D3*
D23*
X1794000D3*
D15*
X3494000Y3394000D3*
D23*
X3194000D3*
D15*
X3494000Y2894000D3*
D23*
X3194000D3*
D15*
X3494000Y2394000D3*
D23*
X3194000D3*
D15*
X3494000Y1894000D3*
D23*
X3194000D3*
D15*
X3494000Y1394000D3*
D23*
X3194000D3*
D15*
X3494000Y894000D3*
D23*
X3194000D3*
D24*
X1394000Y3394000D3*
D25*
Y3294000D3*
Y3194000D3*
X1694000D3*
Y3294000D3*
Y3394000D3*
D24*
X1394000Y2894000D3*
D25*
Y2794000D3*
Y2694000D3*
X1694000D3*
Y2794000D3*
Y2894000D3*
D24*
X1394000Y2394000D3*
D25*
Y2294000D3*
Y2194000D3*
X1694000D3*
Y2294000D3*
Y2394000D3*
D24*
X1394000Y1894000D3*
D25*
Y1794000D3*
Y1694000D3*
X1694000D3*
Y1794000D3*
Y1894000D3*
D24*
X1394000Y1394000D3*
D25*
Y1294000D3*
Y1194000D3*
X1694000D3*
Y1294000D3*
Y1394000D3*
D24*
X1394000Y894000D3*
D25*
Y794000D3*
Y694000D3*
X1694000D3*
Y794000D3*
Y894000D3*
D24*
X2794000Y3394000D3*
D25*
Y3294000D3*
Y3194000D3*
X3094000D3*
Y3294000D3*
Y3394000D3*
D24*
X2794000Y2894000D3*
D25*
Y2794000D3*
Y2694000D3*
X3094000D3*
Y2794000D3*
Y2894000D3*
D24*
X2794000Y2394000D3*
D25*
Y2294000D3*
Y2194000D3*
X3094000D3*
Y2294000D3*
Y2394000D3*
D24*
X2794000Y1894000D3*
D25*
Y1794000D3*
Y1694000D3*
X3094000D3*
Y1794000D3*
Y1894000D3*
D24*
X2794000Y1394000D3*
D25*
Y1294000D3*
Y1194000D3*
X3094000D3*
Y1294000D3*
Y1394000D3*
D24*
X2794000Y894000D3*
D25*
Y794000D3*
Y694000D3*
X3094000D3*
Y794000D3*
Y894000D3*
M02*
