G04 DipTrace 3.2.0.1*
G04 TopAssy.gbr*
%MOIN*%
G04 #@! TF.FileFunction,Drawing,Top*
G04 #@! TF.Part,Single*
%ADD10C,0.009843*%
%ADD60C,0.009264*%
%ADD61C,0.003088*%
%FSLAX26Y26*%
G04*
G70*
G90*
G75*
G01*
G04 TopAssy*
%LPD*%
X634161Y626677D2*
D10*
Y2661323D1*
X3589702Y1243780D2*
D60*
Y1269580D1*
X3586784Y1278202D1*
X3583932Y1281120D1*
X3578228Y1283972D1*
X3572458D1*
X3566754Y1281120D1*
X3563836Y1278202D1*
X3560984Y1269580D1*
Y1243780D1*
X3621272D1*
X3589702Y1263876D2*
X3621272Y1283972D1*
X3598324Y1302499D2*
Y1336921D1*
X3592554D1*
X3586784Y1334069D1*
X3583932Y1331217D1*
X3581080Y1325447D1*
Y1316825D1*
X3583932Y1311121D1*
X3589702Y1305351D1*
X3598324Y1302499D1*
X3604028D1*
X3612650Y1305351D1*
X3618354Y1311121D1*
X3621272Y1316825D1*
Y1325447D1*
X3618354Y1331217D1*
X3612650Y1336921D1*
X3560984Y1389870D2*
X3621272D1*
X3589702D2*
X3583932Y1384166D1*
X3581080Y1378396D1*
Y1369774D1*
X3583932Y1364070D1*
X3589702Y1358300D1*
X3598324Y1355448D1*
X3604028D1*
X3612650Y1358300D1*
X3618354Y1364070D1*
X3621272Y1369774D1*
Y1378396D1*
X3618354Y1384166D1*
X3612650Y1389870D1*
X3621272Y1437115D2*
X3561051D1*
X3601176Y1408397D1*
Y1451441D1*
X3575376Y2658106D2*
Y2683905D1*
X3572457Y2692527D1*
X3569605Y2695446D1*
X3563902Y2698298D1*
X3558132D1*
X3552428Y2695446D1*
X3549509Y2692528D1*
X3546658Y2683905D1*
Y2658106D1*
X3606946D1*
X3575376Y2678202D2*
X3606946Y2698298D1*
X3583998Y2716825D2*
Y2751247D1*
X3578228D1*
X3572457Y2748395D1*
X3569605Y2745543D1*
X3566754Y2739773D1*
Y2731151D1*
X3569605Y2725447D1*
X3575376Y2719677D1*
X3583998Y2716825D1*
X3589701D1*
X3598324Y2719677D1*
X3604027Y2725447D1*
X3606946Y2731151D1*
Y2739773D1*
X3604027Y2745543D1*
X3598324Y2751247D1*
X3546658Y2804195D2*
X3606946D1*
X3575376D2*
X3569605Y2798492D1*
X3566754Y2792722D1*
Y2784099D1*
X3569605Y2778396D1*
X3575376Y2772626D1*
X3583998Y2769774D1*
X3589701D1*
X3598324Y2772626D1*
X3604027Y2778396D1*
X3606946Y2784099D1*
Y2792722D1*
X3604027Y2798492D1*
X3598324Y2804195D1*
X3558198Y2822723D2*
X3555280Y2828493D1*
X3546724Y2837115D1*
X3606946D1*
X3588277Y2245205D2*
Y2271005D1*
X3585359Y2279627D1*
X3582507Y2282545D1*
X3576803Y2285397D1*
X3571033D1*
X3565329Y2282545D1*
X3562411Y2279627D1*
X3559559Y2271005D1*
Y2245205D1*
X3619847D1*
X3588277Y2265301D2*
X3619847Y2285397D1*
X3596899Y2303924D2*
Y2338346D1*
X3591129D1*
X3585359Y2335494D1*
X3582507Y2332642D1*
X3579655Y2326872D1*
Y2318250D1*
X3582507Y2312546D1*
X3588277Y2306776D1*
X3596899Y2303924D1*
X3602603D1*
X3611225Y2306776D1*
X3616929Y2312546D1*
X3619847Y2318250D1*
Y2326872D1*
X3616929Y2332642D1*
X3611225Y2338346D1*
X3559559Y2391295D2*
X3619847D1*
X3588277D2*
X3582507Y2385591D1*
X3579655Y2379821D1*
Y2371199D1*
X3582507Y2365495D1*
X3588277Y2359725D1*
X3596899Y2356873D1*
X3602603D1*
X3611225Y2359725D1*
X3616929Y2365495D1*
X3619847Y2371199D1*
Y2379821D1*
X3616929Y2385591D1*
X3611225Y2391295D1*
X3573951Y2412741D2*
X3571099D1*
X3565329Y2415592D1*
X3562477Y2418444D1*
X3559625Y2424214D1*
Y2435688D1*
X3562477Y2441392D1*
X3565329Y2444244D1*
X3571099Y2447162D1*
X3576803D1*
X3582573Y2444244D1*
X3591129Y2438540D1*
X3619847Y2409822D1*
Y2450014D1*
X3588277Y1745205D2*
Y1771005D1*
X3585359Y1779627D1*
X3582507Y1782545D1*
X3576803Y1785397D1*
X3571033D1*
X3565329Y1782545D1*
X3562411Y1779627D1*
X3559559Y1771005D1*
Y1745205D1*
X3619847D1*
X3588277Y1765301D2*
X3619847Y1785397D1*
X3596899Y1803924D2*
Y1838346D1*
X3591129D1*
X3585359Y1835494D1*
X3582507Y1832642D1*
X3579655Y1826872D1*
Y1818250D1*
X3582507Y1812546D1*
X3588277Y1806776D1*
X3596899Y1803924D1*
X3602603D1*
X3611225Y1806776D1*
X3616929Y1812546D1*
X3619847Y1818250D1*
Y1826872D1*
X3616929Y1832642D1*
X3611225Y1838346D1*
X3559559Y1891295D2*
X3619847D1*
X3588277D2*
X3582507Y1885591D1*
X3579655Y1879821D1*
Y1871199D1*
X3582507Y1865495D1*
X3588277Y1859725D1*
X3596899Y1856873D1*
X3602603D1*
X3611225Y1859725D1*
X3616929Y1865495D1*
X3619847Y1871199D1*
Y1879821D1*
X3616929Y1885591D1*
X3611225Y1891295D1*
X3559625Y1915592D2*
Y1947096D1*
X3582573Y1929918D1*
Y1938540D1*
X3585425Y1944244D1*
X3588277Y1947096D1*
X3596899Y1950014D1*
X3602603D1*
X3611225Y1947096D1*
X3616995Y1941392D1*
X3619847Y1932770D1*
Y1924148D1*
X3616995Y1915592D1*
X3614077Y1912741D1*
X3608373Y1909822D1*
X2575310Y1086824D2*
X2569606Y1083972D1*
X2563836Y1078202D1*
X2560984Y1072498D1*
Y1061024D1*
X2563836Y1055254D1*
X2569606Y1049550D1*
X2575310Y1046632D1*
X2583932Y1043780D1*
X2598324D1*
X2606880Y1046632D1*
X2612650Y1049550D1*
X2618354Y1055254D1*
X2621272Y1061024D1*
Y1072498D1*
X2618354Y1078202D1*
X2612650Y1083972D1*
X2606880Y1086824D1*
X2598324D1*
Y1072498D1*
X2581080Y1105351D2*
X2621272D1*
X2598324D2*
X2589702Y1108269D1*
X2583932Y1113973D1*
X2581080Y1119743D1*
Y1128365D1*
X2598324Y1146892D2*
Y1181314D1*
X2592554D1*
X2586784Y1178462D1*
X2583932Y1175610D1*
X2581080Y1169840D1*
Y1161218D1*
X2583932Y1155514D1*
X2589702Y1149744D1*
X2598324Y1146892D1*
X2604028D1*
X2612650Y1149744D1*
X2618354Y1155514D1*
X2621272Y1161218D1*
Y1169840D1*
X2618354Y1175610D1*
X2612650Y1181314D1*
X2598324Y1199841D2*
Y1234263D1*
X2592554D1*
X2586784Y1231411D1*
X2583932Y1228559D1*
X2581080Y1222789D1*
Y1214167D1*
X2583932Y1208463D1*
X2589702Y1202693D1*
X2598324Y1199841D1*
X2604028D1*
X2612650Y1202693D1*
X2618354Y1208463D1*
X2621272Y1214167D1*
Y1222789D1*
X2618354Y1228559D1*
X2612650Y1234263D1*
X2581080Y1252790D2*
X2621272D1*
X2592554D2*
X2583932Y1261412D1*
X2581080Y1267183D1*
Y1275738D1*
X2583932Y1281508D1*
X2592554Y1284360D1*
X2621272D1*
Y1331605D2*
X2561051D1*
X2601176Y1302887D1*
Y1345931D1*
X2560983Y2701150D2*
X2555280Y2698298D1*
X2549509Y2692528D1*
X2546658Y2686824D1*
Y2675350D1*
X2549509Y2669580D1*
X2555280Y2663876D1*
X2560983Y2660958D1*
X2569605Y2658106D1*
X2583998D1*
X2592553Y2660958D1*
X2598323Y2663876D1*
X2604027Y2669580D1*
X2606946Y2675350D1*
Y2686824D1*
X2604027Y2692527D1*
X2598324Y2698298D1*
X2592553Y2701149D1*
X2583998Y2701150D1*
Y2686824D1*
X2566754Y2719677D2*
X2606946D1*
X2583998D2*
X2575376Y2722595D1*
X2569605Y2728299D1*
X2566754Y2734069D1*
Y2742691D1*
X2583998Y2761218D2*
Y2795640D1*
X2578228D1*
X2572457Y2792788D1*
X2569605Y2789936D1*
X2566754Y2784166D1*
Y2775544D1*
X2569605Y2769840D1*
X2575376Y2764070D1*
X2583998Y2761218D1*
X2589701D1*
X2598324Y2764070D1*
X2604027Y2769840D1*
X2606946Y2775544D1*
Y2784166D1*
X2604027Y2789936D1*
X2598324Y2795640D1*
X2583998Y2814167D2*
Y2848589D1*
X2578228D1*
X2572457Y2845737D1*
X2569605Y2842885D1*
X2566754Y2837115D1*
Y2828493D1*
X2569605Y2822789D1*
X2575376Y2817019D1*
X2583998Y2814167D1*
X2589701D1*
X2598324Y2817019D1*
X2604027Y2822789D1*
X2606946Y2828493D1*
Y2837115D1*
X2604027Y2842885D1*
X2598323Y2848589D1*
X2566754Y2867116D2*
X2606946D1*
X2578228D2*
X2569605Y2875738D1*
X2566754Y2881508D1*
Y2890064D1*
X2569605Y2895834D1*
X2578228Y2898686D1*
X2606946D1*
X2558198Y2917213D2*
X2555280Y2922983D1*
X2546724Y2931605D1*
X2606946D1*
X2573885Y2088249D2*
X2568181Y2085397D1*
X2562411Y2079627D1*
X2559559Y2073923D1*
Y2062449D1*
X2562411Y2056679D1*
X2568181Y2050976D1*
X2573885Y2048057D1*
X2582507Y2045205D1*
X2596899D1*
X2605455Y2048057D1*
X2611225Y2050976D1*
X2616929Y2056679D1*
X2619847Y2062449D1*
Y2073923D1*
X2616929Y2079627D1*
X2611225Y2085397D1*
X2605455Y2088249D1*
X2596899D1*
Y2073923D1*
X2579655Y2106776D2*
X2619847D1*
X2596899D2*
X2588277Y2109695D1*
X2582507Y2115398D1*
X2579655Y2121169D1*
Y2129791D1*
X2596899Y2148318D2*
Y2182739D1*
X2591129D1*
X2585359Y2179888D1*
X2582507Y2177036D1*
X2579655Y2171266D1*
Y2162643D1*
X2582507Y2156940D1*
X2588277Y2151170D1*
X2596899Y2148318D1*
X2602603D1*
X2611225Y2151170D1*
X2616929Y2156940D1*
X2619847Y2162643D1*
Y2171266D1*
X2616929Y2177036D1*
X2611225Y2182739D1*
X2596899Y2201267D2*
Y2235688D1*
X2591129D1*
X2585359Y2232837D1*
X2582507Y2229985D1*
X2579655Y2224214D1*
Y2215592D1*
X2582507Y2209889D1*
X2588277Y2204118D1*
X2596899Y2201267D1*
X2602603D1*
X2611225Y2204118D1*
X2616929Y2209889D1*
X2619847Y2215592D1*
Y2224214D1*
X2616929Y2229985D1*
X2611225Y2235688D1*
X2579655Y2254216D2*
X2619847D1*
X2591129D2*
X2582507Y2262838D1*
X2579655Y2268608D1*
Y2277163D1*
X2582507Y2282934D1*
X2591129Y2285785D1*
X2619847D1*
X2573951Y2307231D2*
X2571099D1*
X2565329Y2310083D1*
X2562477Y2312935D1*
X2559625Y2318705D1*
Y2330179D1*
X2562477Y2335883D1*
X2565329Y2338734D1*
X2571099Y2341653D1*
X2576803D1*
X2582573Y2338734D1*
X2591129Y2333031D1*
X2619847Y2304313D1*
Y2344505D1*
X2573885Y1688249D2*
X2568181Y1685397D1*
X2562411Y1679627D1*
X2559559Y1673923D1*
Y1662449D1*
X2562411Y1656679D1*
X2568181Y1650976D1*
X2573885Y1648057D1*
X2582507Y1645205D1*
X2596899D1*
X2605455Y1648057D1*
X2611225Y1650976D1*
X2616929Y1656679D1*
X2619847Y1662449D1*
Y1673923D1*
X2616929Y1679627D1*
X2611225Y1685397D1*
X2605455Y1688249D1*
X2596899D1*
Y1673923D1*
X2579655Y1706776D2*
X2619847D1*
X2596899D2*
X2588277Y1709695D1*
X2582507Y1715398D1*
X2579655Y1721169D1*
Y1729791D1*
X2596899Y1748318D2*
Y1782739D1*
X2591129D1*
X2585359Y1779888D1*
X2582507Y1777036D1*
X2579655Y1771266D1*
Y1762643D1*
X2582507Y1756940D1*
X2588277Y1751170D1*
X2596899Y1748318D1*
X2602603D1*
X2611225Y1751170D1*
X2616929Y1756940D1*
X2619847Y1762643D1*
Y1771266D1*
X2616929Y1777036D1*
X2611225Y1782739D1*
X2596899Y1801267D2*
Y1835688D1*
X2591129D1*
X2585359Y1832837D1*
X2582507Y1829985D1*
X2579655Y1824214D1*
Y1815592D1*
X2582507Y1809889D1*
X2588277Y1804118D1*
X2596899Y1801267D1*
X2602603D1*
X2611225Y1804118D1*
X2616929Y1809889D1*
X2619847Y1815592D1*
Y1824214D1*
X2616929Y1829985D1*
X2611225Y1835688D1*
X2579655Y1854216D2*
X2619847D1*
X2591129D2*
X2582507Y1862838D1*
X2579655Y1868608D1*
Y1877163D1*
X2582507Y1882934D1*
X2591129Y1885785D1*
X2619847D1*
X2559625Y1910083D2*
Y1941586D1*
X2582573Y1924409D1*
Y1933031D1*
X2585425Y1938734D1*
X2588277Y1941586D1*
X2596899Y1944505D1*
X2602603D1*
X2611225Y1941586D1*
X2616995Y1935883D1*
X2619847Y1927260D1*
Y1918638D1*
X2616995Y1910083D1*
X2614077Y1907231D1*
X2608373Y1904313D1*
X2546658Y3158106D2*
X2606946D1*
Y3183972D1*
X2604027Y3192594D1*
X2601175Y3195446D1*
X2595472Y3198298D1*
X2586850D1*
X2581079Y3195446D1*
X2578228Y3192594D1*
X2575376Y3183972D1*
X2572457Y3192594D1*
X2569605Y3195446D1*
X2563902Y3198298D1*
X2558132D1*
X2552428Y3195446D1*
X2549509Y3192594D1*
X2546658Y3183972D1*
Y3158106D1*
X2575376D2*
Y3183972D1*
X2566754Y3231151D2*
X2569605Y3225447D1*
X2575376Y3219677D1*
X2583998Y3216825D1*
X2589701D1*
X2598324Y3219677D1*
X2604027Y3225447D1*
X2606946Y3231151D1*
Y3239773D1*
X2604027Y3245543D1*
X2598324Y3251247D1*
X2589701Y3254165D1*
X2583998D1*
X2575376Y3251247D1*
X2569605Y3245543D1*
X2566754Y3239773D1*
Y3231151D1*
Y3272692D2*
X2606946Y3304262D1*
X2566754D2*
X2606946Y3272692D1*
X3546658Y3258106D2*
X3606946D1*
Y3292527D1*
X3566754Y3345476D2*
X3606946D1*
X3575376D2*
X3569605Y3339773D1*
X3566754Y3334002D1*
Y3325447D1*
X3569605Y3319677D1*
X3575376Y3313973D1*
X3583998Y3311055D1*
X3589701D1*
X3598324Y3313973D1*
X3604027Y3319677D1*
X3606946Y3325447D1*
Y3334002D1*
X3604027Y3339773D1*
X3598324Y3345476D1*
X3575376Y3395573D2*
X3569605Y3392722D1*
X3566754Y3384099D1*
Y3375477D1*
X3569605Y3366855D1*
X3575376Y3364003D1*
X3581079Y3366855D1*
X3583998Y3372626D1*
X3586850Y3386951D1*
X3589701Y3392722D1*
X3595472Y3395573D1*
X3598324D1*
X3604027Y3392722D1*
X3606946Y3384099D1*
Y3375477D1*
X3604027Y3366855D1*
X3598324Y3364003D1*
X3546658Y3422723D2*
X3595472D1*
X3604027Y3425574D1*
X3606946Y3431345D1*
Y3437048D1*
X3566754Y3414101D2*
Y3434197D1*
X2452322Y619959D2*
X2475270Y591241D1*
Y559671D1*
X2498218Y619959D2*
X2475270Y591241D1*
X2516745Y582619D2*
X2551167D1*
Y588389D1*
X2548315Y594159D1*
X2545463Y597011D1*
X2539693Y599863D1*
X2531071D1*
X2525367Y597011D1*
X2519597Y591241D1*
X2516745Y582619D1*
Y576915D1*
X2519597Y568293D1*
X2525367Y562590D1*
X2531071Y559671D1*
X2539693D1*
X2545463Y562590D1*
X2551167Y568293D1*
X2569694Y619959D2*
Y559671D1*
X2588221Y619959D2*
Y559671D1*
X2621074Y599863D2*
X2615370Y597011D1*
X2609600Y591241D1*
X2606748Y582619D1*
Y576915D1*
X2609600Y568293D1*
X2615370Y562590D1*
X2621074Y559671D1*
X2629696D1*
X2635466Y562590D1*
X2641170Y568293D1*
X2644088Y576915D1*
Y582619D1*
X2641170Y591241D1*
X2635466Y597011D1*
X2629696Y599863D1*
X2621074D1*
X2662615D2*
X2674089Y559671D1*
X2685563Y599863D1*
X2697037Y559671D1*
X2708511Y599863D1*
X3452322Y619959D2*
X3475270Y591241D1*
Y559671D1*
X3498218Y619959D2*
X3475270Y591241D1*
X3516745Y582619D2*
X3551167D1*
Y588389D1*
X3548315Y594159D1*
X3545463Y597011D1*
X3539693Y599863D1*
X3531071D1*
X3525367Y597011D1*
X3519597Y591241D1*
X3516745Y582619D1*
Y576915D1*
X3519597Y568293D1*
X3525367Y562590D1*
X3531071Y559671D1*
X3539693D1*
X3545463Y562590D1*
X3551167Y568293D1*
X3569694Y619959D2*
Y559671D1*
X3588221Y619959D2*
Y559671D1*
X3621074Y599863D2*
X3615370Y597011D1*
X3609600Y591241D1*
X3606748Y582619D1*
Y576915D1*
X3609600Y568293D1*
X3615370Y562590D1*
X3621074Y559671D1*
X3629696D1*
X3635466Y562590D1*
X3641170Y568293D1*
X3644088Y576915D1*
Y582619D1*
X3641170Y591241D1*
X3635466Y597011D1*
X3629696Y599863D1*
X3621074D1*
X3662615D2*
X3674089Y559671D1*
X3685563Y599863D1*
X3697037Y559671D1*
X3708511Y599863D1*
X595862Y1544626D2*
D61*
X615958D1*
Y1553248D1*
X614986Y1556122D1*
X614035Y1557072D1*
X612134Y1558023D1*
X609260D1*
X607336Y1557072D1*
X606386Y1556122D1*
X605435Y1553248D1*
X604462Y1556122D1*
X603512Y1557072D1*
X601610Y1558023D1*
X599687D1*
X597786Y1557072D1*
X596813Y1556122D1*
X595862Y1553248D1*
Y1544626D1*
X605435D2*
Y1553248D1*
X595862Y1569947D2*
X596813Y1568023D1*
X598736Y1566122D1*
X600638Y1565149D1*
X603512Y1564199D1*
X608309D1*
X611161Y1565149D1*
X613084Y1566122D1*
X614986Y1568023D1*
X615958Y1569947D1*
Y1573771D1*
X614986Y1575672D1*
X613084Y1577596D1*
X611161Y1578547D1*
X608309Y1579497D1*
X603512D1*
X600638Y1578547D1*
X598736Y1577596D1*
X596813Y1575673D1*
X595862Y1573771D1*
Y1569947D1*
X615958Y1600994D2*
X595862Y1593322D1*
X615958Y1585673D1*
X609260Y1588547D2*
Y1598120D1*
X605435Y1607169D2*
Y1615769D1*
X604462Y1618643D1*
X603512Y1619616D1*
X601610Y1620567D1*
X599687D1*
X597786Y1619616D1*
X596813Y1618643D1*
X595862Y1615769D1*
Y1607169D1*
X615958D1*
X605435Y1613868D2*
X615958Y1620567D1*
X595862Y1626742D2*
X615958D1*
Y1633441D1*
X614985Y1636315D1*
X613084Y1638238D1*
X611161Y1639189D1*
X608309Y1640140D1*
X603512D1*
X600638Y1639189D1*
X598736Y1638238D1*
X596813Y1636315D1*
X595862Y1633441D1*
Y1626742D1*
Y1678180D2*
Y1665756D1*
X615958D1*
Y1678180D1*
X605435Y1665756D2*
Y1673405D1*
X595862Y1684356D2*
X615958D1*
Y1691055D1*
X614985Y1693929D1*
X613084Y1695852D1*
X611161Y1696803D1*
X608309Y1697753D1*
X603512D1*
X600638Y1696803D1*
X598736Y1695852D1*
X596813Y1693929D1*
X595862Y1691055D1*
Y1684356D1*
X600638Y1718277D2*
X598736Y1717326D1*
X596813Y1715403D1*
X595862Y1713502D1*
Y1709677D1*
X596813Y1707754D1*
X598736Y1705852D1*
X600638Y1704880D1*
X603512Y1703929D1*
X608309D1*
X611161Y1704880D1*
X613084Y1705852D1*
X614985Y1707754D1*
X615958Y1709677D1*
Y1713502D1*
X614985Y1715403D1*
X613084Y1717326D1*
X611161Y1718277D1*
X608309D1*
Y1713502D1*
X595862Y1736877D2*
Y1724453D1*
X615958D1*
Y1736877D1*
X605435Y1724453D2*
Y1732102D1*
M02*
