G04 DipTrace 3.2.0.1*
G04 TopSilk.gbr*
%MOIN*%
G04 #@! TF.FileFunction,Legend,Top*
G04 #@! TF.Part,Single*
%ADD10C,0.009843*%
%ADD59C,0.00772*%
%FSLAX26Y26*%
G04*
G70*
G90*
G75*
G01*
G04 TopSilk*
%LPD*%
X1441633Y3108961D2*
D10*
X1646367D1*
X1441633Y3479039D2*
Y3108961D1*
X1646367Y3479039D2*
Y3108961D1*
X1441633Y3479039D2*
X1520374D1*
X1646367D2*
X1567626D1*
X1520374D2*
G03X1567626Y3479039I23626J15D01*
G01*
X1441633Y2608961D2*
X1646367D1*
X1441633Y2979039D2*
Y2608961D1*
X1646367Y2979039D2*
Y2608961D1*
X1441633Y2979039D2*
X1520374D1*
X1646367D2*
X1567626D1*
X1520374D2*
G03X1567626Y2979039I23626J15D01*
G01*
X1441633Y2108961D2*
X1646367D1*
X1441633Y2479039D2*
Y2108961D1*
X1646367Y2479039D2*
Y2108961D1*
X1441633Y2479039D2*
X1520374D1*
X1646367D2*
X1567626D1*
X1520374D2*
G03X1567626Y2479039I23626J15D01*
G01*
X1441633Y1608961D2*
X1646367D1*
X1441633Y1979039D2*
Y1608961D1*
X1646367Y1979039D2*
Y1608961D1*
X1441633Y1979039D2*
X1520374D1*
X1646367D2*
X1567626D1*
X1520374D2*
G03X1567626Y1979039I23626J15D01*
G01*
X1441633Y1108961D2*
X1646367D1*
X1441633Y1479039D2*
Y1108961D1*
X1646367Y1479039D2*
Y1108961D1*
X1441633Y1479039D2*
X1520374D1*
X1646367D2*
X1567626D1*
X1520374D2*
G03X1567626Y1479039I23626J15D01*
G01*
X1441633Y608961D2*
X1646367D1*
X1441633Y979039D2*
Y608961D1*
X1646367Y979039D2*
Y608961D1*
X1441633Y979039D2*
X1520374D1*
X1646367D2*
X1567626D1*
X1520374D2*
G03X1567626Y979039I23626J15D01*
G01*
X2841633Y3108961D2*
X3046367D1*
X2841633Y3479039D2*
Y3108961D1*
X3046367Y3479039D2*
Y3108961D1*
X2841633Y3479039D2*
X2920374D1*
X3046367D2*
X2967626D1*
X2920374D2*
G03X2967626Y3479039I23626J15D01*
G01*
X2841633Y2608961D2*
X3046367D1*
X2841633Y2979039D2*
Y2608961D1*
X3046367Y2979039D2*
Y2608961D1*
X2841633Y2979039D2*
X2920374D1*
X3046367D2*
X2967626D1*
X2920374D2*
G03X2967626Y2979039I23626J15D01*
G01*
X2841633Y2108961D2*
X3046367D1*
X2841633Y2479039D2*
Y2108961D1*
X3046367Y2479039D2*
Y2108961D1*
X2841633Y2479039D2*
X2920374D1*
X3046367D2*
X2967626D1*
X2920374D2*
G03X2967626Y2479039I23626J15D01*
G01*
X2841633Y1608961D2*
X3046367D1*
X2841633Y1979039D2*
Y1608961D1*
X3046367Y1979039D2*
Y1608961D1*
X2841633Y1979039D2*
X2920374D1*
X3046367D2*
X2967626D1*
X2920374D2*
G03X2967626Y1979039I23626J15D01*
G01*
X2841633Y1108961D2*
X3046367D1*
X2841633Y1479039D2*
Y1108961D1*
X3046367Y1479039D2*
Y1108961D1*
X2841633Y1479039D2*
X2920374D1*
X3046367D2*
X2967626D1*
X2920374D2*
G03X2967626Y1479039I23626J15D01*
G01*
X2841633Y608961D2*
X3046367D1*
X2841633Y979039D2*
Y608961D1*
X3046367Y979039D2*
Y608961D1*
X2841633Y979039D2*
X2920374D1*
X3046367D2*
X2967626D1*
X2920374D2*
G03X2967626Y979039I23626J15D01*
G01*
X1055780Y2225465D2*
X1032220D1*
X1055780Y2162535D2*
X1032220D1*
X1055780Y2025465D2*
X1032220D1*
X1055780Y1962535D2*
X1032220D1*
X1055780Y1825465D2*
X1032220D1*
X1055780Y1762535D2*
X1032220D1*
X1055780Y1625465D2*
X1032220D1*
X1055780Y1562535D2*
X1032220D1*
X1055780Y1425465D2*
X1032220D1*
X1055780Y1362535D2*
X1032220D1*
X1055780Y1225465D2*
X1032220D1*
X1055780Y1162535D2*
X1032220D1*
X643998Y643158D2*
X744000D1*
Y2644842D1*
X643998D1*
Y643158D1*
X2049512Y3138882D2*
X1758173D1*
Y3249118D1*
X2049512D1*
Y3138882D2*
Y3249118D1*
X755024Y3489276D2*
X632976D1*
Y3095575D1*
X755024D1*
Y3489276D1*
X2024150Y3364000D2*
Y3424000D1*
X1863850Y3364000D2*
X2024150D1*
X1863850D2*
Y3424000D1*
X2024150D1*
X2455024Y3489276D2*
X2332976D1*
Y3095575D1*
X2455024D1*
Y3489276D1*
X2049512Y2638882D2*
X1758173D1*
Y2749118D1*
X2049512D1*
Y2638882D2*
Y2749118D1*
X2024150Y2864000D2*
Y2924000D1*
X1863850Y2864000D2*
X2024150D1*
X1863850D2*
Y2924000D1*
X2024150D1*
X2455024Y2992425D2*
X2332976D1*
Y2598724D1*
X2455024D1*
Y2992425D1*
X2049512Y2138882D2*
X1758173D1*
Y2249118D1*
X2049512D1*
Y2138882D2*
Y2249118D1*
X2024150Y2364000D2*
Y2424000D1*
X1863850Y2364000D2*
X2024150D1*
X1863850D2*
Y2424000D1*
X2024150D1*
X2455024Y2489276D2*
X2332976D1*
Y2095575D1*
X2455024D1*
Y2489276D1*
X2049512Y1638882D2*
X1758173D1*
Y1749118D1*
X2049512D1*
Y1638882D2*
Y1749118D1*
X2024150Y1864000D2*
Y1924000D1*
X1863850Y1864000D2*
X2024150D1*
X1863850D2*
Y1924000D1*
X2024150D1*
X2455024Y1992425D2*
X2332976D1*
Y1598724D1*
X2455024D1*
Y1992425D1*
X2039669Y1129039D2*
X1748331D1*
Y1239276D1*
X2039669D1*
Y1129039D2*
Y1239276D1*
X2024150Y1364000D2*
Y1424000D1*
X1863850Y1364000D2*
X2024150D1*
X1863850D2*
Y1424000D1*
X2024150D1*
X2455024Y1492425D2*
X2332976D1*
Y1098724D1*
X2455024D1*
Y1492425D1*
X2039669Y629039D2*
X1748331D1*
Y739276D1*
X2039669D1*
Y629039D2*
Y739276D1*
X2024150Y864000D2*
Y924000D1*
X1863850Y864000D2*
X2024150D1*
X1863850D2*
Y924000D1*
X2024150D1*
X2455024Y992425D2*
X2332976D1*
Y598724D1*
X2455024D1*
Y992425D1*
X3449512Y3138882D2*
X3158173D1*
Y3249118D1*
X3449512D1*
Y3138882D2*
Y3249118D1*
X3424150Y3364000D2*
Y3424000D1*
X3263850Y3364000D2*
X3424150D1*
X3263850D2*
Y3424000D1*
X3424150D1*
X3855024Y3492425D2*
X3732976D1*
Y3098724D1*
X3855024D1*
Y3492425D1*
X3439669Y2629039D2*
X3148331D1*
Y2739276D1*
X3439669D1*
Y2629039D2*
Y2739276D1*
X3424150Y2864000D2*
Y2924000D1*
X3263850Y2864000D2*
X3424150D1*
X3263850D2*
Y2924000D1*
X3424150D1*
X3855024Y2989276D2*
X3732976D1*
Y2595575D1*
X3855024D1*
Y2989276D1*
X3439669Y2129039D2*
X3148331D1*
Y2239276D1*
X3439669D1*
Y2129039D2*
Y2239276D1*
X3424150Y2364000D2*
Y2424000D1*
X3263850Y2364000D2*
X3424150D1*
X3263850D2*
Y2424000D1*
X3424150D1*
X3855024Y2489276D2*
X3732976D1*
Y2095575D1*
X3855024D1*
Y2489276D1*
X3449512Y1638882D2*
X3158173D1*
Y1749118D1*
X3449512D1*
Y1638882D2*
Y1749118D1*
X3424150Y1864000D2*
Y1924000D1*
X3263850Y1864000D2*
X3424150D1*
X3263850D2*
Y1924000D1*
X3424150D1*
X3855024Y1989276D2*
X3732976D1*
Y1595575D1*
X3855024D1*
Y1989276D1*
X3449512Y1138882D2*
X3158173D1*
Y1249118D1*
X3449512D1*
Y1138882D2*
Y1249118D1*
X3424150Y1364000D2*
Y1424000D1*
X3263850Y1364000D2*
X3424150D1*
X3263850D2*
Y1424000D1*
X3424150D1*
X3855024Y1489276D2*
X3732976D1*
Y1095575D1*
X3855024D1*
Y1489276D1*
X3439669Y629039D2*
X3148331D1*
Y739276D1*
X3439669D1*
Y629039D2*
Y739276D1*
X3424150Y864000D2*
Y924000D1*
X3263850Y864000D2*
X3424150D1*
X3263850D2*
Y924000D1*
X3424150D1*
X3855024Y992425D2*
X3732976D1*
Y598724D1*
X3855024D1*
Y992425D1*
X1484317Y3552262D2*
D59*
X1503441Y3502022D1*
X1522564Y3552262D1*
X1552373D2*
X1547565Y3549886D1*
X1542812Y3545077D1*
X1540380Y3540324D1*
X1538003Y3533139D1*
Y3521146D1*
X1540380Y3514016D1*
X1542812Y3509207D1*
X1547565Y3504454D1*
X1552373Y3502022D1*
X1561935D1*
X1566688Y3504454D1*
X1571497Y3509207D1*
X1573873Y3514016D1*
X1576250Y3521146D1*
Y3533139D1*
X1573873Y3540324D1*
X1571497Y3545077D1*
X1566688Y3549886D1*
X1561935Y3552262D1*
X1552373D1*
X1591689Y3542646D2*
X1596497Y3545077D1*
X1603683Y3552207D1*
Y3502022D1*
X1473568Y3052262D2*
X1492691Y3002022D1*
X1511814Y3052262D1*
X1541623D2*
X1536815Y3049886D1*
X1532062Y3045077D1*
X1529630Y3040324D1*
X1527253Y3033139D1*
Y3021146D1*
X1529630Y3014016D1*
X1532062Y3009207D1*
X1536815Y3004454D1*
X1541623Y3002022D1*
X1551185D1*
X1555938Y3004454D1*
X1560747Y3009207D1*
X1563123Y3014016D1*
X1565500Y3021146D1*
Y3033139D1*
X1563123Y3040324D1*
X1560747Y3045077D1*
X1555938Y3049886D1*
X1551185Y3052262D1*
X1541623D1*
X1583371Y3040269D2*
Y3042646D1*
X1585748Y3047454D1*
X1588124Y3049831D1*
X1592933Y3052207D1*
X1602494D1*
X1607247Y3049831D1*
X1609624Y3047454D1*
X1612056Y3042646D1*
Y3037892D1*
X1609624Y3033084D1*
X1604871Y3025954D1*
X1580939Y3002022D1*
X1614432D1*
X1473568Y2552262D2*
X1492691Y2502022D1*
X1511814Y2552262D1*
X1541623D2*
X1536815Y2549886D1*
X1532062Y2545077D1*
X1529630Y2540324D1*
X1527253Y2533139D1*
Y2521146D1*
X1529630Y2514016D1*
X1532062Y2509207D1*
X1536815Y2504454D1*
X1541623Y2502022D1*
X1551185D1*
X1555938Y2504454D1*
X1560747Y2509207D1*
X1563123Y2514016D1*
X1565500Y2521146D1*
Y2533139D1*
X1563123Y2540324D1*
X1560747Y2545077D1*
X1555938Y2549886D1*
X1551185Y2552262D1*
X1541623D1*
X1585748Y2552207D2*
X1612001D1*
X1597686Y2533084D1*
X1604871D1*
X1609624Y2530707D1*
X1612001Y2528331D1*
X1614432Y2521146D1*
Y2516393D1*
X1612001Y2509207D1*
X1607247Y2504399D1*
X1600062Y2502022D1*
X1592877D1*
X1585748Y2504399D1*
X1583371Y2506831D1*
X1580939Y2511584D1*
X1472379Y2052262D2*
X1491503Y2002022D1*
X1510626Y2052262D1*
X1540435D2*
X1535627Y2049886D1*
X1530873Y2045077D1*
X1528442Y2040324D1*
X1526065Y2033139D1*
Y2021146D1*
X1528442Y2014016D1*
X1530873Y2009207D1*
X1535627Y2004454D1*
X1540435Y2002022D1*
X1549997D1*
X1554750Y2004454D1*
X1559558Y2009207D1*
X1561935Y2014016D1*
X1564312Y2021146D1*
Y2033139D1*
X1561935Y2040324D1*
X1559558Y2045077D1*
X1554750Y2049886D1*
X1549997Y2052262D1*
X1540435D1*
X1603683Y2002022D2*
Y2052207D1*
X1579751Y2018769D1*
X1615621D1*
X1473568Y1552262D2*
X1492691Y1502022D1*
X1511814Y1552262D1*
X1541623D2*
X1536815Y1549886D1*
X1532062Y1545077D1*
X1529630Y1540324D1*
X1527253Y1533139D1*
Y1521146D1*
X1529630Y1514016D1*
X1532062Y1509207D1*
X1536815Y1504454D1*
X1541623Y1502022D1*
X1551185D1*
X1555938Y1504454D1*
X1560747Y1509207D1*
X1563123Y1514016D1*
X1565500Y1521146D1*
Y1533139D1*
X1563123Y1540324D1*
X1560747Y1545077D1*
X1555938Y1549886D1*
X1551185Y1552262D1*
X1541623D1*
X1609624Y1552207D2*
X1585748D1*
X1583371Y1530707D1*
X1585748Y1533084D1*
X1592933Y1535516D1*
X1600062D1*
X1607247Y1533084D1*
X1612056Y1528331D1*
X1614432Y1521146D1*
Y1516393D1*
X1612056Y1509207D1*
X1607247Y1504399D1*
X1600062Y1502022D1*
X1592933D1*
X1585748Y1504399D1*
X1583371Y1506831D1*
X1580939Y1511584D1*
X1474783Y1052262D2*
X1493907Y1002022D1*
X1513030Y1052262D1*
X1542839D2*
X1538031Y1049886D1*
X1533278Y1045077D1*
X1530846Y1040324D1*
X1528469Y1033139D1*
Y1021146D1*
X1530846Y1014016D1*
X1533278Y1009207D1*
X1538031Y1004454D1*
X1542839Y1002022D1*
X1552401D1*
X1557154Y1004454D1*
X1561963Y1009207D1*
X1564339Y1014016D1*
X1566716Y1021146D1*
Y1033139D1*
X1564339Y1040324D1*
X1561963Y1045077D1*
X1557154Y1049886D1*
X1552401Y1052262D1*
X1542839D1*
X1610840Y1045077D2*
X1608463Y1049831D1*
X1601278Y1052207D1*
X1596525D1*
X1589340Y1049831D1*
X1584532Y1042646D1*
X1582155Y1030707D1*
Y1018769D1*
X1584532Y1009207D1*
X1589340Y1004399D1*
X1596525Y1002022D1*
X1598902D1*
X1606031Y1004399D1*
X1610840Y1009207D1*
X1613217Y1016393D1*
Y1018769D1*
X1610840Y1025954D1*
X1606031Y1030707D1*
X1598902Y1033084D1*
X1596525D1*
X1589340Y1030707D1*
X1584532Y1025954D1*
X1582155Y1018769D1*
X2873568Y3552262D2*
X2892691Y3502022D1*
X2911814Y3552262D1*
X2941623D2*
X2936815Y3549886D1*
X2932062Y3545077D1*
X2929630Y3540324D1*
X2927253Y3533139D1*
Y3521146D1*
X2929630Y3514016D1*
X2932062Y3509207D1*
X2936815Y3504454D1*
X2941623Y3502022D1*
X2951185D1*
X2955938Y3504454D1*
X2960747Y3509207D1*
X2963123Y3514016D1*
X2965500Y3521146D1*
Y3533139D1*
X2963123Y3540324D1*
X2960747Y3545077D1*
X2955938Y3549886D1*
X2951185Y3552262D1*
X2941623D1*
X2990501Y3502022D2*
X3014432Y3552207D1*
X2980939D1*
X2873595Y3052262D2*
X2892718Y3002022D1*
X2911842Y3052262D1*
X2941651D2*
X2936843Y3049886D1*
X2932089Y3045077D1*
X2929658Y3040324D1*
X2927281Y3033139D1*
Y3021146D1*
X2929658Y3014016D1*
X2932089Y3009207D1*
X2936843Y3004454D1*
X2941651Y3002022D1*
X2951213D1*
X2955966Y3004454D1*
X2960774Y3009207D1*
X2963151Y3014016D1*
X2965527Y3021146D1*
Y3033139D1*
X2963151Y3040324D1*
X2960774Y3045077D1*
X2955966Y3049886D1*
X2951213Y3052262D1*
X2941651D1*
X2992905Y3052207D2*
X2985775Y3049831D1*
X2983343Y3045077D1*
Y3040269D1*
X2985775Y3035516D1*
X2990528Y3033084D1*
X3000090Y3030707D1*
X3007275Y3028331D1*
X3012028Y3023522D1*
X3014405Y3018769D1*
Y3011584D1*
X3012028Y3006831D1*
X3009652Y3004399D1*
X3002467Y3002022D1*
X2992905D1*
X2985775Y3004399D1*
X2983343Y3006831D1*
X2980967Y3011584D1*
Y3018769D1*
X2983343Y3023522D1*
X2988152Y3028331D1*
X2995282Y3030707D1*
X3004843Y3033084D1*
X3009652Y3035516D1*
X3012028Y3040269D1*
Y3045077D1*
X3009652Y3049831D1*
X3002467Y3052207D1*
X2992905D1*
X2874756Y2552262D2*
X2893879Y2502022D1*
X2913002Y2552262D1*
X2942812D2*
X2938003Y2549886D1*
X2933250Y2545077D1*
X2930818Y2540324D1*
X2928442Y2533139D1*
Y2521146D1*
X2930818Y2514016D1*
X2933250Y2509207D1*
X2938003Y2504454D1*
X2942812Y2502022D1*
X2952373D1*
X2957127Y2504454D1*
X2961935Y2509207D1*
X2964312Y2514016D1*
X2966688Y2521146D1*
Y2533139D1*
X2964312Y2540324D1*
X2961935Y2545077D1*
X2957127Y2549886D1*
X2952373Y2552262D1*
X2942812D1*
X3013244Y2535516D2*
X3010812Y2528331D1*
X3006059Y2523522D1*
X2998874Y2521146D1*
X2996497D1*
X2989312Y2523522D1*
X2984559Y2528331D1*
X2982127Y2535516D1*
Y2537892D1*
X2984559Y2545077D1*
X2989312Y2549831D1*
X2996497Y2552207D1*
X2998874D1*
X3006059Y2549831D1*
X3010812Y2545077D1*
X3013244Y2535516D1*
Y2523522D1*
X3010812Y2511584D1*
X3006059Y2504399D1*
X2998874Y2502022D1*
X2994121D1*
X2986936Y2504399D1*
X2984559Y2509207D1*
X2859851Y2052262D2*
X2878974Y2002022D1*
X2898098Y2052262D1*
X2927907D2*
X2923099Y2049886D1*
X2918345Y2045077D1*
X2915914Y2040324D1*
X2913537Y2033139D1*
Y2021146D1*
X2915914Y2014016D1*
X2918345Y2009207D1*
X2923099Y2004454D1*
X2927907Y2002022D1*
X2937469D1*
X2942222Y2004454D1*
X2947030Y2009207D1*
X2949407Y2014016D1*
X2951783Y2021146D1*
Y2033139D1*
X2949407Y2040324D1*
X2947030Y2045077D1*
X2942222Y2049886D1*
X2937469Y2052262D1*
X2927907D1*
X2967223Y2042646D2*
X2972031Y2045077D1*
X2979216Y2052207D1*
Y2002022D1*
X3009026Y2052207D2*
X3001841Y2049831D1*
X2997032Y2042646D1*
X2994655Y2030707D1*
Y2023522D1*
X2997032Y2011584D1*
X3001841Y2004399D1*
X3009026Y2002022D1*
X3013779D1*
X3020964Y2004399D1*
X3025717Y2011584D1*
X3028149Y2023522D1*
Y2030707D1*
X3025717Y2042646D1*
X3020964Y2049831D1*
X3013779Y2052207D1*
X3009026D1*
X3025717Y2042646D2*
X2997032Y2011584D1*
X2870601Y1552262D2*
X2889724Y1502022D1*
X2908848Y1552262D1*
X2938657D2*
X2933849Y1549886D1*
X2929095Y1545077D1*
X2926663Y1540324D1*
X2924287Y1533139D1*
Y1521146D1*
X2926663Y1514016D1*
X2929095Y1509207D1*
X2933849Y1504454D1*
X2938657Y1502022D1*
X2948219D1*
X2952972Y1504454D1*
X2957780Y1509207D1*
X2960157Y1514016D1*
X2962533Y1521146D1*
Y1533139D1*
X2960157Y1540324D1*
X2957780Y1545077D1*
X2952972Y1549886D1*
X2948219Y1552262D1*
X2938657D1*
X2977973Y1542646D2*
X2982781Y1545077D1*
X2989966Y1552207D1*
Y1502022D1*
X3005405Y1542646D2*
X3010214Y1545077D1*
X3017399Y1552207D1*
Y1502022D1*
X2859851Y1052262D2*
X2878974Y1002022D1*
X2898098Y1052262D1*
X2927907D2*
X2923099Y1049886D1*
X2918345Y1045077D1*
X2915914Y1040324D1*
X2913537Y1033139D1*
Y1021146D1*
X2915914Y1014016D1*
X2918345Y1009207D1*
X2923099Y1004454D1*
X2927907Y1002022D1*
X2937469D1*
X2942222Y1004454D1*
X2947030Y1009207D1*
X2949407Y1014016D1*
X2951783Y1021146D1*
Y1033139D1*
X2949407Y1040324D1*
X2947030Y1045077D1*
X2942222Y1049886D1*
X2937469Y1052262D1*
X2927907D1*
X2967223Y1042646D2*
X2972031Y1045077D1*
X2979216Y1052207D1*
Y1002022D1*
X2997087Y1040269D2*
Y1042646D1*
X2999464Y1047454D1*
X3001841Y1049831D1*
X3006649Y1052207D1*
X3016211D1*
X3020964Y1049831D1*
X3023340Y1047454D1*
X3025772Y1042646D1*
Y1037892D1*
X3023340Y1033084D1*
X3018587Y1025954D1*
X2994655Y1002022D1*
X3028149D1*
X1013537Y2278724D2*
X1035037D1*
X1042222Y2281156D1*
X1044654Y2283533D1*
X1047030Y2288286D1*
Y2293095D1*
X1044654Y2297848D1*
X1042222Y2300280D1*
X1035037Y2302656D1*
X1013537D1*
Y2252416D1*
X1030284Y2278724D2*
X1047030Y2252416D1*
X1062470Y2293039D2*
X1067278Y2295471D1*
X1074463Y2302601D1*
Y2252416D1*
X1002787Y2078724D2*
X1024287D1*
X1031472Y2081156D1*
X1033904Y2083533D1*
X1036280Y2088286D1*
Y2093095D1*
X1033904Y2097848D1*
X1031472Y2100280D1*
X1024287Y2102656D1*
X1002787D1*
Y2052416D1*
X1019534Y2078724D2*
X1036280Y2052416D1*
X1054151Y2090663D2*
Y2093039D1*
X1056528Y2097848D1*
X1058905Y2100224D1*
X1063713Y2102601D1*
X1073275D1*
X1078028Y2100224D1*
X1080405Y2097848D1*
X1082836Y2093039D1*
Y2088286D1*
X1080405Y2083478D1*
X1075651Y2076348D1*
X1051720Y2052416D1*
X1085213D1*
X1002787Y1878724D2*
X1024287D1*
X1031472Y1881156D1*
X1033904Y1883533D1*
X1036280Y1888286D1*
Y1893095D1*
X1033904Y1897848D1*
X1031472Y1900280D1*
X1024287Y1902656D1*
X1002787D1*
Y1852416D1*
X1019534Y1878724D2*
X1036280Y1852416D1*
X1056528Y1902601D2*
X1082781D1*
X1068466Y1883478D1*
X1075651D1*
X1080405Y1881101D1*
X1082781Y1878724D1*
X1085213Y1871539D1*
Y1866786D1*
X1082781Y1859601D1*
X1078028Y1854793D1*
X1070843Y1852416D1*
X1063658D1*
X1056528Y1854793D1*
X1054151Y1857225D1*
X1051720Y1861978D1*
X1001599Y1678724D2*
X1023099D1*
X1030284Y1681156D1*
X1032715Y1683533D1*
X1035092Y1688286D1*
Y1693095D1*
X1032715Y1697848D1*
X1030284Y1700280D1*
X1023099Y1702656D1*
X1001599D1*
Y1652416D1*
X1018345Y1678724D2*
X1035092Y1652416D1*
X1074463D2*
Y1702601D1*
X1050531Y1669163D1*
X1086401D1*
X1002787Y1478724D2*
X1024287D1*
X1031472Y1481156D1*
X1033904Y1483533D1*
X1036280Y1488286D1*
Y1493095D1*
X1033904Y1497848D1*
X1031472Y1500280D1*
X1024287Y1502656D1*
X1002787D1*
Y1452416D1*
X1019534Y1478724D2*
X1036280Y1452416D1*
X1080405Y1502601D2*
X1056528D1*
X1054151Y1481101D1*
X1056528Y1483478D1*
X1063713Y1485909D1*
X1070843D1*
X1078028Y1483478D1*
X1082836Y1478724D1*
X1085213Y1471539D1*
Y1466786D1*
X1082836Y1459601D1*
X1078028Y1454793D1*
X1070843Y1452416D1*
X1063713D1*
X1056528Y1454793D1*
X1054151Y1457225D1*
X1051720Y1461978D1*
X1004003Y1278724D2*
X1025503D1*
X1032688Y1281156D1*
X1035120Y1283533D1*
X1037496Y1288286D1*
Y1293095D1*
X1035120Y1297848D1*
X1032688Y1300280D1*
X1025503Y1302656D1*
X1004003D1*
Y1252416D1*
X1020750Y1278724D2*
X1037496Y1252416D1*
X1081620Y1295471D2*
X1079244Y1300224D1*
X1072059Y1302601D1*
X1067306D1*
X1060121Y1300224D1*
X1055312Y1293039D1*
X1052936Y1281101D1*
Y1269163D1*
X1055312Y1259601D1*
X1060121Y1254793D1*
X1067306Y1252416D1*
X1069682D1*
X1076812Y1254793D1*
X1081620Y1259601D1*
X1083997Y1266786D1*
Y1269163D1*
X1081620Y1276348D1*
X1076812Y1281101D1*
X1069682Y1283478D1*
X1067306D1*
X1060121Y1281101D1*
X1055312Y1276348D1*
X1052936Y1269163D1*
X1873379Y3322341D2*
Y3272101D1*
X1890126D1*
X1897311Y3274533D1*
X1902120Y3279286D1*
X1904496Y3284095D1*
X1906873Y3291224D1*
Y3303218D1*
X1904496Y3310403D1*
X1902120Y3315156D1*
X1897311Y3319965D1*
X1890126Y3322341D1*
X1873379D1*
X1922312Y3312724D2*
X1927121Y3315156D1*
X1934306Y3322286D1*
Y3272101D1*
X681500Y3562499D2*
Y3524252D1*
X679123Y3517067D1*
X676691Y3514691D1*
X671938Y3512259D1*
X667129D1*
X662376Y3514691D1*
X660000Y3517067D1*
X657568Y3524252D1*
Y3529005D1*
X699371Y3550505D2*
Y3552882D1*
X701747Y3557690D1*
X704124Y3560067D1*
X708932Y3562443D1*
X718494D1*
X723247Y3560067D1*
X725624Y3557690D1*
X728056Y3552882D1*
Y3548129D1*
X725624Y3543320D1*
X720871Y3536190D1*
X696939Y3512259D1*
X730432D1*
X1902787Y3473291D2*
X1924287D1*
X1931472Y3475723D1*
X1933904Y3478100D1*
X1936280Y3482853D1*
Y3487661D1*
X1933904Y3492415D1*
X1931472Y3494846D1*
X1924287Y3497223D1*
X1902787D1*
Y3446983D1*
X1919534Y3473291D2*
X1936280Y3446983D1*
X1961281D2*
X1985213Y3497168D1*
X1951720D1*
X2381500Y3562499D2*
Y3524252D1*
X2379123Y3517067D1*
X2376691Y3514691D1*
X2371938Y3512259D1*
X2367129D1*
X2362376Y3514691D1*
X2360000Y3517067D1*
X2357568Y3524252D1*
Y3529005D1*
X2401747Y3562443D2*
X2428000D1*
X2413685Y3543320D1*
X2420871D1*
X2425624Y3540944D1*
X2428000Y3538567D1*
X2430432Y3531382D1*
Y3526629D1*
X2428000Y3519444D1*
X2423247Y3514635D1*
X2416062Y3512259D1*
X2408877D1*
X2401747Y3514635D1*
X2399371Y3517067D1*
X2396939Y3521820D1*
X1862630Y2822341D2*
Y2772101D1*
X1879376D1*
X1886561Y2774533D1*
X1891370Y2779286D1*
X1893746Y2784095D1*
X1896123Y2791224D1*
Y2803218D1*
X1893746Y2810403D1*
X1891370Y2815156D1*
X1886561Y2819965D1*
X1879376Y2822341D1*
X1862630D1*
X1913994Y2810348D2*
Y2812724D1*
X1916371Y2817533D1*
X1918747Y2819909D1*
X1923556Y2822286D1*
X1933117D1*
X1937870Y2819909D1*
X1940247Y2817533D1*
X1942679Y2812724D1*
Y2807971D1*
X1940247Y2803163D1*
X1935494Y2796033D1*
X1911562Y2772101D1*
X1945055D1*
X1902815Y2973291D2*
X1924315D1*
X1931500Y2975723D1*
X1933931Y2978100D1*
X1936308Y2982853D1*
Y2987661D1*
X1933931Y2992415D1*
X1931500Y2994846D1*
X1924315Y2997223D1*
X1902815D1*
Y2946983D1*
X1919561Y2973291D2*
X1936308Y2946983D1*
X1963685Y2997168D2*
X1956556Y2994791D1*
X1954124Y2990038D1*
Y2985230D1*
X1956556Y2980476D1*
X1961309Y2978045D1*
X1970871Y2975668D1*
X1978056Y2973291D1*
X1982809Y2968483D1*
X1985185Y2963730D1*
Y2956545D1*
X1982809Y2951792D1*
X1980432Y2949360D1*
X1973247Y2946983D1*
X1963685D1*
X1956556Y2949360D1*
X1954124Y2951792D1*
X1951747Y2956545D1*
Y2963730D1*
X1954124Y2968483D1*
X1958932Y2973291D1*
X1966062Y2975668D1*
X1975624Y2978045D1*
X1980432Y2980476D1*
X1982809Y2985230D1*
Y2990038D1*
X1980432Y2994791D1*
X1973247Y2997168D1*
X1963685D1*
X2380311Y3065648D2*
Y3027402D1*
X2377935Y3020217D1*
X2375503Y3017840D1*
X2370750Y3015408D1*
X2365941D1*
X2361188Y3017840D1*
X2358811Y3020217D1*
X2356380Y3027402D1*
Y3032155D1*
X2419682Y3015408D2*
Y3065593D1*
X2395751Y3032155D1*
X2431620D1*
X1862630Y2322341D2*
Y2272101D1*
X1879376D1*
X1886561Y2274533D1*
X1891370Y2279286D1*
X1893746Y2284095D1*
X1896123Y2291224D1*
Y2303218D1*
X1893746Y2310403D1*
X1891370Y2315156D1*
X1886561Y2319965D1*
X1879376Y2322341D1*
X1862630D1*
X1916371Y2322286D2*
X1942624D1*
X1928309Y2303163D1*
X1935494D1*
X1940247Y2300786D1*
X1942624Y2298409D1*
X1945055Y2291224D1*
Y2286471D1*
X1942624Y2279286D1*
X1937870Y2274478D1*
X1930685Y2272101D1*
X1923500D1*
X1916371Y2274478D1*
X1913994Y2276910D1*
X1911562Y2281663D1*
X1903975Y2473291D2*
X1925475D1*
X1932660Y2475723D1*
X1935092Y2478100D1*
X1937469Y2482853D1*
Y2487661D1*
X1935092Y2492415D1*
X1932660Y2494846D1*
X1925475Y2497223D1*
X1903975D1*
Y2446983D1*
X1920722Y2473291D2*
X1937469Y2446983D1*
X1984025Y2480476D2*
X1981593Y2473291D1*
X1976840Y2468483D1*
X1969655Y2466106D1*
X1967278D1*
X1960093Y2468483D1*
X1955340Y2473291D1*
X1952908Y2480476D1*
Y2482853D1*
X1955340Y2490038D1*
X1960093Y2494791D1*
X1967278Y2497168D1*
X1969655D1*
X1976840Y2494791D1*
X1981593Y2490038D1*
X1984025Y2480476D1*
Y2468483D1*
X1981593Y2456545D1*
X1976840Y2449360D1*
X1969655Y2446983D1*
X1964901D1*
X1957716Y2449360D1*
X1955340Y2454168D1*
X2381500Y2562499D2*
Y2524252D1*
X2379123Y2517067D1*
X2376691Y2514691D1*
X2371938Y2512259D1*
X2367129D1*
X2362376Y2514691D1*
X2360000Y2517067D1*
X2357568Y2524252D1*
Y2529005D1*
X2425624Y2562443D2*
X2401747D1*
X2399371Y2540944D1*
X2401747Y2543320D1*
X2408932Y2545752D1*
X2416062D1*
X2423247Y2543320D1*
X2428056Y2538567D1*
X2430432Y2531382D1*
Y2526629D1*
X2428056Y2519444D1*
X2423247Y2514635D1*
X2416062Y2512259D1*
X2408932D1*
X2401747Y2514635D1*
X2399371Y2517067D1*
X2396939Y2521820D1*
X1861441Y1822341D2*
Y1772101D1*
X1878188D1*
X1885373Y1774533D1*
X1890181Y1779286D1*
X1892558Y1784095D1*
X1894935Y1791224D1*
Y1803218D1*
X1892558Y1810403D1*
X1890181Y1815156D1*
X1885373Y1819965D1*
X1878188Y1822341D1*
X1861441D1*
X1934306Y1772101D2*
Y1822286D1*
X1910374Y1788848D1*
X1946244D1*
X1889071Y1973291D2*
X1910571D1*
X1917756Y1975723D1*
X1920187Y1978100D1*
X1922564Y1982853D1*
Y1987661D1*
X1920187Y1992415D1*
X1917756Y1994846D1*
X1910571Y1997223D1*
X1889071D1*
Y1946983D1*
X1905817Y1973291D2*
X1922564Y1946983D1*
X1938003Y1987606D2*
X1942812Y1990038D1*
X1949997Y1997168D1*
Y1946983D1*
X1979806Y1997168D2*
X1972621Y1994791D1*
X1967813Y1987606D1*
X1965436Y1975668D1*
Y1968483D1*
X1967813Y1956545D1*
X1972621Y1949360D1*
X1979806Y1946983D1*
X1984559D1*
X1991744Y1949360D1*
X1996497Y1956545D1*
X1998929Y1968483D1*
Y1975668D1*
X1996497Y1987606D1*
X1991744Y1994791D1*
X1984559Y1997168D1*
X1979806D1*
X1996497Y1987606D2*
X1967813Y1956545D1*
X2382715Y2065648D2*
Y2027402D1*
X2380339Y2020217D1*
X2377907Y2017840D1*
X2373154Y2015408D1*
X2368345D1*
X2363592Y2017840D1*
X2361216Y2020217D1*
X2358784Y2027402D1*
Y2032155D1*
X2426840Y2058463D2*
X2424463Y2063216D1*
X2417278Y2065593D1*
X2412525D1*
X2405340Y2063216D1*
X2400531Y2056031D1*
X2398155Y2044093D1*
Y2032155D1*
X2400531Y2022593D1*
X2405340Y2017785D1*
X2412525Y2015408D1*
X2414901D1*
X2422031Y2017785D1*
X2426840Y2022593D1*
X2429216Y2029778D1*
Y2032155D1*
X2426840Y2039340D1*
X2422031Y2044093D1*
X2414901Y2046470D1*
X2412525D1*
X2405340Y2044093D1*
X2400531Y2039340D1*
X2398155Y2032155D1*
X1852787Y1312499D2*
Y1262259D1*
X1869534D1*
X1876719Y1264691D1*
X1881527Y1269444D1*
X1883904Y1274252D1*
X1886280Y1281382D1*
Y1293375D1*
X1883904Y1300560D1*
X1881527Y1305314D1*
X1876719Y1310122D1*
X1869534Y1312499D1*
X1852787D1*
X1930405Y1312443D2*
X1906528D1*
X1904151Y1290944D1*
X1906528Y1293320D1*
X1913713Y1295752D1*
X1920843D1*
X1928028Y1293320D1*
X1932836Y1288567D1*
X1935213Y1281382D1*
Y1276629D1*
X1932836Y1269444D1*
X1928028Y1264635D1*
X1920843Y1262259D1*
X1913713D1*
X1906528Y1264635D1*
X1904151Y1267067D1*
X1901720Y1271820D1*
X1899821Y1473291D2*
X1921320D1*
X1928505Y1475723D1*
X1930937Y1478100D1*
X1933314Y1482853D1*
Y1487661D1*
X1930937Y1492415D1*
X1928505Y1494846D1*
X1921320Y1497223D1*
X1899821D1*
Y1446983D1*
X1916567Y1473291D2*
X1933314Y1446983D1*
X1948753Y1487606D2*
X1953562Y1490038D1*
X1960747Y1497168D1*
Y1446983D1*
X1976186Y1487606D2*
X1980994Y1490038D1*
X1988179Y1497168D1*
Y1446983D1*
X2381500Y1565648D2*
Y1527402D1*
X2379123Y1520217D1*
X2376691Y1517840D1*
X2371938Y1515408D1*
X2367129D1*
X2362376Y1517840D1*
X2360000Y1520217D1*
X2357568Y1527402D1*
Y1532155D1*
X2406500Y1515408D2*
X2430432Y1565593D1*
X2396939D1*
X1854003Y812499D2*
Y762259D1*
X1870750D1*
X1877935Y764691D1*
X1882743Y769444D1*
X1885120Y774252D1*
X1887496Y781382D1*
Y793375D1*
X1885120Y800560D1*
X1882743Y805314D1*
X1877935Y810122D1*
X1870750Y812499D1*
X1854003D1*
X1931620Y805314D2*
X1929244Y810067D1*
X1922059Y812443D1*
X1917306D1*
X1910121Y810067D1*
X1905312Y802882D1*
X1902936Y790944D1*
Y779005D1*
X1905312Y769444D1*
X1910121Y764635D1*
X1917306Y762259D1*
X1919682D1*
X1926812Y764635D1*
X1931620Y769444D1*
X1933997Y776629D1*
Y779005D1*
X1931620Y786190D1*
X1926812Y790944D1*
X1919682Y793320D1*
X1917306D1*
X1910121Y790944D1*
X1905312Y786190D1*
X1902936Y779005D1*
X1889071Y973291D2*
X1910571D1*
X1917756Y975723D1*
X1920187Y978100D1*
X1922564Y982853D1*
Y987661D1*
X1920187Y992415D1*
X1917756Y994846D1*
X1910571Y997223D1*
X1889071D1*
Y946983D1*
X1905817Y973291D2*
X1922564Y946983D1*
X1938003Y987606D2*
X1942812Y990038D1*
X1949997Y997168D1*
Y946983D1*
X1967868Y985230D2*
Y987606D1*
X1970244Y992415D1*
X1972621Y994791D1*
X1977429Y997168D1*
X1986991D1*
X1991744Y994791D1*
X1994121Y992415D1*
X1996553Y987606D1*
Y982853D1*
X1994121Y978045D1*
X1989368Y970915D1*
X1965436Y946983D1*
X1998929D1*
X2381527Y1065648D2*
Y1027402D1*
X2379151Y1020217D1*
X2376719Y1017840D1*
X2371966Y1015408D1*
X2367157D1*
X2362404Y1017840D1*
X2360027Y1020217D1*
X2357595Y1027402D1*
Y1032155D1*
X2408905Y1065593D2*
X2401775Y1063216D1*
X2399343Y1058463D1*
Y1053655D1*
X2401775Y1048902D1*
X2406528Y1046470D1*
X2416090Y1044093D1*
X2423275Y1041717D1*
X2428028Y1036908D1*
X2430405Y1032155D1*
Y1024970D1*
X2428028Y1020217D1*
X2425651Y1017785D1*
X2418466Y1015408D1*
X2408905D1*
X2401775Y1017785D1*
X2399343Y1020217D1*
X2396966Y1024970D1*
Y1032155D1*
X2399343Y1036908D1*
X2404151Y1041717D1*
X2411281Y1044093D1*
X2420843Y1046470D1*
X2425651Y1048902D1*
X2428028Y1053655D1*
Y1058463D1*
X2425651Y1063216D1*
X2418466Y1065593D1*
X2408905D1*
X3262630Y3322341D2*
Y3272101D1*
X3279376D1*
X3286561Y3274533D1*
X3291370Y3279286D1*
X3293746Y3284095D1*
X3296123Y3291224D1*
Y3303218D1*
X3293746Y3310403D1*
X3291370Y3315156D1*
X3286561Y3319965D1*
X3279376Y3322341D1*
X3262630D1*
X3321124Y3272101D2*
X3345055Y3322286D1*
X3311562D1*
X3289071Y3473291D2*
X3310571D1*
X3317756Y3475723D1*
X3320187Y3478100D1*
X3322564Y3482853D1*
Y3487661D1*
X3320187Y3492415D1*
X3317756Y3494846D1*
X3310571Y3497223D1*
X3289071D1*
Y3446983D1*
X3305817Y3473291D2*
X3322564Y3446983D1*
X3338003Y3487606D2*
X3342812Y3490038D1*
X3349997Y3497168D1*
Y3446983D1*
X3370244Y3497168D2*
X3396497D1*
X3382183Y3478045D1*
X3389368D1*
X3394121Y3475668D1*
X3396497Y3473291D1*
X3398929Y3466106D1*
Y3461353D1*
X3396497Y3454168D1*
X3391744Y3449360D1*
X3384559Y3446983D1*
X3377374D1*
X3370244Y3449360D1*
X3367868Y3451792D1*
X3365436Y3456545D1*
X3782688Y3565648D2*
Y3527402D1*
X3780311Y3520217D1*
X3777879Y3517840D1*
X3773126Y3515408D1*
X3768318D1*
X3763565Y3517840D1*
X3761188Y3520217D1*
X3758756Y3527402D1*
Y3532155D1*
X3829244Y3548902D2*
X3826812Y3541717D1*
X3822059Y3536908D1*
X3814874Y3534532D1*
X3812497D1*
X3805312Y3536908D1*
X3800559Y3541717D1*
X3798127Y3548902D1*
Y3551278D1*
X3800559Y3558463D1*
X3805312Y3563216D1*
X3812497Y3565593D1*
X3814874D1*
X3822059Y3563216D1*
X3826812Y3558463D1*
X3829244Y3548902D1*
Y3536908D1*
X3826812Y3524970D1*
X3822059Y3517785D1*
X3814874Y3515408D1*
X3810121D1*
X3802936Y3517785D1*
X3800559Y3522593D1*
X3252815Y2812499D2*
Y2762259D1*
X3269561D1*
X3276746Y2764691D1*
X3281555Y2769444D1*
X3283931Y2774252D1*
X3286308Y2781382D1*
Y2793375D1*
X3283931Y2800560D1*
X3281555Y2805314D1*
X3276746Y2810122D1*
X3269561Y2812499D1*
X3252815D1*
X3313685Y2812443D2*
X3306556Y2810067D1*
X3304124Y2805314D1*
Y2800505D1*
X3306556Y2795752D1*
X3311309Y2793320D1*
X3320871Y2790944D1*
X3328056Y2788567D1*
X3332809Y2783759D1*
X3335185Y2779005D1*
Y2771820D1*
X3332809Y2767067D1*
X3330432Y2764635D1*
X3323247Y2762259D1*
X3313685D1*
X3306556Y2764635D1*
X3304124Y2767067D1*
X3301747Y2771820D1*
Y2779005D1*
X3304124Y2783759D1*
X3308932Y2788567D1*
X3316062Y2790944D1*
X3325624Y2793320D1*
X3330432Y2795752D1*
X3332809Y2800505D1*
Y2805314D1*
X3330432Y2810067D1*
X3323247Y2812443D1*
X3313685D1*
X3287882Y2973291D2*
X3309382D1*
X3316567Y2975723D1*
X3318999Y2978100D1*
X3321376Y2982853D1*
Y2987661D1*
X3318999Y2992415D1*
X3316567Y2994846D1*
X3309382Y2997223D1*
X3287882D1*
Y2946983D1*
X3304629Y2973291D2*
X3321376Y2946983D1*
X3336815Y2987606D2*
X3341623Y2990038D1*
X3348808Y2997168D1*
Y2946983D1*
X3388179D2*
Y2997168D1*
X3364248Y2963730D1*
X3400118D1*
X3659753Y2766209D2*
X3698000Y2766208D1*
X3705185Y2763832D1*
X3707562Y2761400D1*
X3709993Y2756647D1*
Y2751838D1*
X3707561Y2747085D1*
X3705185Y2744709D1*
X3698000Y2742277D1*
X3693247D1*
X3669370Y2781648D2*
X3666938Y2786456D1*
X3659809Y2793641D1*
X3709993D1*
X3659809Y2823451D2*
X3662185Y2816265D1*
X3669370Y2811457D1*
X3681308Y2809080D1*
X3688494D1*
X3700432Y2811457D1*
X3707617Y2816265D1*
X3709993Y2823450D1*
Y2828204D1*
X3707617Y2835389D1*
X3700432Y2840142D1*
X3688494Y2842574D1*
X3681308D1*
X3669370Y2840142D1*
X3662185Y2835389D1*
X3659809Y2828204D1*
Y2823451D1*
X3669370Y2840142D2*
X3700432Y2811457D1*
X3253975Y2312499D2*
Y2262259D1*
X3270722D1*
X3277907Y2264691D1*
X3282715Y2269444D1*
X3285092Y2274252D1*
X3287469Y2281382D1*
Y2293375D1*
X3285092Y2300560D1*
X3282715Y2305314D1*
X3277907Y2310122D1*
X3270722Y2312499D1*
X3253975D1*
X3334025Y2295752D2*
X3331593Y2288567D1*
X3326840Y2283759D1*
X3319655Y2281382D1*
X3317278D1*
X3310093Y2283759D1*
X3305340Y2288567D1*
X3302908Y2295752D1*
Y2298129D1*
X3305340Y2305314D1*
X3310093Y2310067D1*
X3317278Y2312443D1*
X3319655D1*
X3326840Y2310067D1*
X3331593Y2305314D1*
X3334025Y2295752D1*
Y2283759D1*
X3331593Y2271820D1*
X3326840Y2264635D1*
X3319655Y2262259D1*
X3314901D1*
X3307716Y2264635D1*
X3305340Y2269444D1*
X3289071Y2473291D2*
X3310571D1*
X3317756Y2475723D1*
X3320187Y2478100D1*
X3322564Y2482853D1*
Y2487661D1*
X3320187Y2492415D1*
X3317756Y2494846D1*
X3310571Y2497223D1*
X3289071D1*
Y2446983D1*
X3305817Y2473291D2*
X3322564Y2446983D1*
X3338003Y2487606D2*
X3342812Y2490038D1*
X3349997Y2497168D1*
Y2446983D1*
X3394121Y2497168D2*
X3370244D1*
X3367868Y2475668D1*
X3370244Y2478045D1*
X3377429Y2480476D1*
X3384559D1*
X3391744Y2478045D1*
X3396553Y2473291D1*
X3398929Y2466106D1*
Y2461353D1*
X3396553Y2454168D1*
X3391744Y2449360D1*
X3384559Y2446983D1*
X3377429D1*
X3370244Y2449360D1*
X3367868Y2451792D1*
X3365436Y2456545D1*
X3659753Y2276958D2*
X3698000D1*
X3705185Y2274582D1*
X3707562Y2272150D1*
X3709993Y2267397D1*
Y2262588D1*
X3707561Y2257835D1*
X3705185Y2255459D1*
X3698000Y2253027D1*
X3693247D1*
X3669370Y2292398D2*
X3666938Y2297206D1*
X3659809Y2304391D1*
X3709993D1*
X3669370Y2319830D2*
X3666938Y2324639D1*
X3659809Y2331824D1*
X3709993D1*
X3248913Y1822341D2*
Y1772101D1*
X3265660D1*
X3272845Y1774533D1*
X3277653Y1779286D1*
X3280030Y1784095D1*
X3282407Y1791224D1*
Y1803218D1*
X3280030Y1810403D1*
X3277653Y1815156D1*
X3272845Y1819965D1*
X3265660Y1822341D1*
X3248913D1*
X3297846Y1812724D2*
X3302654Y1815156D1*
X3309839Y1822286D1*
Y1772101D1*
X3339649Y1822286D2*
X3332464Y1819909D1*
X3327655Y1812724D1*
X3325279Y1800786D1*
Y1793601D1*
X3327655Y1781663D1*
X3332464Y1774478D1*
X3339649Y1772101D1*
X3344402D1*
X3351587Y1774478D1*
X3356340Y1781663D1*
X3358772Y1793601D1*
Y1800786D1*
X3356340Y1812724D1*
X3351587Y1819909D1*
X3344402Y1822286D1*
X3339649D1*
X3356340Y1812724D2*
X3327655Y1781663D1*
X3290287Y1973291D2*
X3311786D1*
X3318971Y1975723D1*
X3321403Y1978100D1*
X3323780Y1982853D1*
Y1987661D1*
X3321403Y1992415D1*
X3318971Y1994846D1*
X3311786Y1997223D1*
X3290287D1*
Y1946983D1*
X3307033Y1973291D2*
X3323780Y1946983D1*
X3339219Y1987606D2*
X3344028Y1990038D1*
X3351213Y1997168D1*
Y1946983D1*
X3395337Y1990038D2*
X3392960Y1994791D1*
X3385775Y1997168D1*
X3381022D1*
X3373837Y1994791D1*
X3369029Y1987606D1*
X3366652Y1975668D1*
Y1963730D1*
X3369029Y1954168D1*
X3373837Y1949360D1*
X3381022Y1946983D1*
X3383399D1*
X3390528Y1949360D1*
X3395337Y1954168D1*
X3397713Y1961353D1*
Y1963730D1*
X3395337Y1970915D1*
X3390528Y1975668D1*
X3383399Y1978045D1*
X3381022D1*
X3373837Y1975668D1*
X3369029Y1970915D1*
X3366652Y1963730D1*
X3659753Y1766209D2*
X3698000Y1766208D1*
X3705185Y1763832D1*
X3707562Y1761400D1*
X3709993Y1756647D1*
Y1751838D1*
X3707561Y1747085D1*
X3705185Y1744709D1*
X3698000Y1742277D1*
X3693247D1*
X3669370Y1781648D2*
X3666938Y1786456D1*
X3659809Y1793641D1*
X3709993D1*
X3671747Y1811512D2*
X3669370D1*
X3664562Y1813889D1*
X3662185Y1816265D1*
X3659809Y1821074D1*
Y1830636D1*
X3662185Y1835389D1*
X3664562Y1837765D1*
X3669370Y1840197D1*
X3674123D1*
X3678932Y1837765D1*
X3686062Y1833012D1*
X3709993Y1809080D1*
Y1842574D1*
X3259663Y1322341D2*
Y1272101D1*
X3276410D1*
X3283595Y1274533D1*
X3288403Y1279286D1*
X3290780Y1284095D1*
X3293156Y1291224D1*
Y1303218D1*
X3290780Y1310403D1*
X3288403Y1315156D1*
X3283595Y1319965D1*
X3276410Y1322341D1*
X3259663D1*
X3308596Y1312724D2*
X3313404Y1315156D1*
X3320589Y1322286D1*
Y1272101D1*
X3336028Y1312724D2*
X3340837Y1315156D1*
X3348022Y1322286D1*
Y1272101D1*
X3289071Y1473291D2*
X3310571D1*
X3317756Y1475723D1*
X3320187Y1478100D1*
X3322564Y1482853D1*
Y1487661D1*
X3320187Y1492415D1*
X3317756Y1494846D1*
X3310571Y1497223D1*
X3289071D1*
Y1446983D1*
X3305817Y1473291D2*
X3322564Y1446983D1*
X3338003Y1487606D2*
X3342812Y1490038D1*
X3349997Y1497168D1*
Y1446983D1*
X3374998D2*
X3398929Y1497168D1*
X3365436D1*
X3659753Y1266209D2*
X3698000Y1266208D1*
X3705185Y1263832D1*
X3707562Y1261400D1*
X3709993Y1256647D1*
Y1251838D1*
X3707561Y1247085D1*
X3705185Y1244709D1*
X3698000Y1242277D1*
X3693247D1*
X3669370Y1281648D2*
X3666938Y1286456D1*
X3659809Y1293641D1*
X3709993D1*
X3659809Y1313889D2*
Y1340142D1*
X3678932Y1325827D1*
Y1333012D1*
X3681308Y1337765D1*
X3683685Y1340142D1*
X3690870Y1342574D1*
X3695623D1*
X3702808Y1340142D1*
X3707617Y1335389D1*
X3709993Y1328204D1*
Y1321019D1*
X3707617Y1313889D1*
X3705185Y1311512D1*
X3700432Y1309080D1*
X3239071Y812499D2*
Y762259D1*
X3255817D1*
X3263002Y764691D1*
X3267811Y769444D1*
X3270187Y774252D1*
X3272564Y781382D1*
Y793375D1*
X3270187Y800560D1*
X3267811Y805314D1*
X3263002Y810122D1*
X3255817Y812499D1*
X3239071D1*
X3288003Y802882D2*
X3292812Y805314D1*
X3299997Y812443D1*
Y762259D1*
X3317868Y800505D2*
Y802882D1*
X3320244Y807690D1*
X3322621Y810067D1*
X3327429Y812443D1*
X3336991D1*
X3341744Y810067D1*
X3344121Y807690D1*
X3346553Y802882D1*
Y798129D1*
X3344121Y793320D1*
X3339368Y786190D1*
X3315436Y762259D1*
X3348929D1*
X3289098Y973291D2*
X3310598D1*
X3317783Y975723D1*
X3320215Y978100D1*
X3322592Y982853D1*
Y987661D1*
X3320215Y992415D1*
X3317783Y994846D1*
X3310598Y997223D1*
X3289098D1*
Y946983D1*
X3305845Y973291D2*
X3322592Y946983D1*
X3338031Y987606D2*
X3342839Y990038D1*
X3350024Y997168D1*
Y946983D1*
X3377402Y997168D2*
X3370272Y994791D1*
X3367840Y990038D1*
Y985230D1*
X3370272Y980476D1*
X3375025Y978045D1*
X3384587Y975668D1*
X3391772Y973291D1*
X3396525Y968483D1*
X3398902Y963730D1*
Y956545D1*
X3396525Y951792D1*
X3394149Y949360D1*
X3386963Y946983D1*
X3377402D1*
X3370272Y949360D1*
X3367840Y951792D1*
X3365464Y956545D1*
Y963730D1*
X3367840Y968483D1*
X3372649Y973291D1*
X3379778Y975668D1*
X3389340Y978045D1*
X3394149Y980476D1*
X3396525Y985230D1*
Y990038D1*
X3394149Y994791D1*
X3386963Y997168D1*
X3377402D1*
X3659753Y768170D2*
X3698000D1*
X3705185Y765793D1*
X3707562Y763361D1*
X3709993Y758608D1*
Y753800D1*
X3707561Y749047D1*
X3705185Y746670D1*
X3698000Y744238D1*
X3693247D1*
X3669370Y783609D2*
X3666938Y788417D1*
X3659809Y795603D1*
X3709993Y795602D1*
Y834973D2*
X3659809D1*
X3693247Y811042D1*
Y846912D1*
M02*
